<?xml version="1.0" ?><svg id="Layer_1" style="enable-background:new 0 0 48 48;" version="1.1" viewBox="0 0 48 48" xml:space="preserve" xmlns="http://www.w3.org/2000/svg" xmlns:xlink="http://www.w3.org/1999/xlink"><style type="text/css">
	.st0{opacity:0.3;}
	.st1{fill:#29ABE2;}
</style><title/><g id="Docker"><g class="st0"><polygon class="st1" points="18,26 18.5,26 18,26   "/><path class="st1" d="M41.8,19.6c-1-0.6-2.2-0.9-3.3-0.8c-0.4-1.3-1.1-2.4-2.1-3.2c-0.2-0.2-0.5-0.2-0.7,0c0,0.1-1.2,1.3-0.9,4    c0,0.2,0,0.4-0.2,0.6c-0.1,0.2-0.3,0.2-0.5,0.2h-1.5v-3c0-0.3-0.2-0.4-0.5-0.4h-2v-6.5c0-0.3-0.2-0.5-0.5-0.5H26    c-0.3,0-0.5,0.2-0.5,0.5v3H19c-0.3,0-0.5,0.2-0.5,0.5v3h-4c-0.3,0-0.5,0.2-0.5,0.5v3h-1.5c-0.3,0-0.5,0.2-0.5,0.5    c0,8.1,5.1,11,10,11c6.4,0,12.2-3.3,15.5-8.7c1.9-0.3,3.5-1.4,4.5-3C42.1,20,42,19.7,41.8,19.6C41.8,19.6,41.8,19.6,41.8,19.6z     M31.5,20.5H29V18h2.5V20.5z M18.5,20.5V18H21v2.5H18.5z M22,20.5V18h2.5v2.5H22z M25.5,20.5V18H28v2.5H25.5z M28.5,17h-2v-2.5H29    V17H28.5z M26.5,11H29v2.5h-2.5V11z M25.5,17H23v-2.5h2.5V17z M19.5,14.5H22V17h-2.5V14.5z M15,18h2.5v2.5H15V18z M18,27    c-0.6,0-1-0.4-1-1s0.4-1,1-1s1,0.4,1,1S18.6,27,18,27z"/></g><circle class="st1" cx="11" cy="34" r="1"/><path class="st1" d="M29.8,29.1c-0.8-0.5-1.8-0.8-2.9-0.7c-0.3-0.9-0.9-1.7-1.6-2.3c-0.2-0.1-0.5-0.1-0.6,0.1   c-0.7,0.9-1,2.1-0.7,3.3c0,0.1,0,0.3-0.1,0.4c-0.1,0.1-0.2,0.2-0.3,0.1H23v-2.5c0-0.3-0.2-0.5-0.5-0.5H20v-5.5   c0-0.3-0.2-0.5-0.5-0.5h-3c-0.3,0-0.5,0.2-0.5,0.5V24h-5.5c-0.3,0-0.5,0.2-0.5,0.5V27H7.5C7.2,27,7,27.2,7,27.5V30H6.5   C6.2,30,6,30.2,6,30.5c0,7.7,5.6,8.5,8,8.5c5.1,0,9.8-2.7,12.4-7.1c1.4-0.2,2.7-1,3.5-2.2C30.1,29.5,30,29.2,29.8,29.1z M22,30h-2   v-2h2V30z M17,30v-2h2v2H17z M14,30v-2h2v2H14z M11,30v-2h2v2H11z M19,25v2h-2v-2H19z M17,22h2v2h-2V22z M16,27h-2v-2h2V27z M11,25   h2v2h-2V25z M8,28h2v2H8V28z M26,31c-0.2,0-0.3,0.1-0.4,0.3C23.3,35.4,18.8,38,14,38c-2.6,0-6.8-0.9-7-7h16.5   c0.4,0,0.8-0.2,1.1-0.5c0.3-0.3,0.4-0.8,0.4-1.2c-0.1-0.7,0-1.4,0.2-2.1c0.5,0.4,0.8,1.1,0.9,1.8c0,0.3,0.2,0.5,0.5,0.5   c0.1,0,0.2,0,0.2-0.1c0.7-0.2,1.4-0.1,2,0.2C28,30.4,27,30.9,26,31z"/></g></svg>